<svg width="128" height="74" viewBox="0 0 128 74" fill="none" xmlns="http://www.w3.org/2000/svg">
<path fill-rule="evenodd" clip-rule="evenodd" d="M0 0H127V39.5206V50.2139V73.1863H0V35.9426V30.8602V0Z" fill="#016FD0"/>
<path fill-rule="evenodd" clip-rule="evenodd" d="M28.0977 59.6484V40.4263H48.4786L50.6598 43.2891L52.9093 40.4263H127.003V58.3533C127.003 58.3533 125.095 59.6484 122.845 59.6484H81.8788L79.4249 56.5811V59.6484H71.3135V54.468C71.3135 54.468 70.2228 55.2178 67.8371 55.2178H65.1106V59.6484H52.8411L50.6598 56.7174L48.4104 59.6484H28.0977Z" fill="white"/>
<path fill-rule="evenodd" clip-rule="evenodd" d="M0 25.9043L4.56697 15.2026H12.5421L15.1323 21.201V15.2026H25.0161L26.5839 19.5651L28.0835 15.2026H72.458V17.3839C72.458 17.3839 74.7756 15.2026 78.5928 15.2026L92.9753 15.2708L95.5655 21.201V15.2026H103.813L106.063 18.6108V15.2026H114.515V34.493H106.131L103.95 31.0848V34.493H91.8165L90.5896 31.4256H87.3177L86.0908 34.493H77.843C74.5711 34.493 72.458 32.3799 72.458 32.3799V34.493H60.0522L57.5983 31.4256V34.493H11.3833L10.1564 31.4256H6.88454L5.65759 34.493H0V25.9043Z" fill="white"/>
<path fill-rule="evenodd" clip-rule="evenodd" d="M6.2029 17.5215L0 31.9722H4.08982L5.24861 29.1093H11.9287L13.0874 31.9722H17.2454L10.9062 17.5215H6.2029ZM8.52047 20.8615L10.5654 25.9056H6.47555L8.52047 20.8615Z" fill="#016FD0"/>
<path fill-rule="evenodd" clip-rule="evenodd" d="M17.5879 31.9722V17.5215L23.3136 17.5896L26.6537 26.8599L29.9255 17.5215H35.5831V31.9722H31.9704V21.3387L28.1533 31.9722H25.0177L21.1324 21.3387V31.9722H17.5879Z" fill="#016FD0"/>
<path fill-rule="evenodd" clip-rule="evenodd" d="M38.0332 31.9722V17.5215H49.8255V20.7933H41.714V23.2472H49.621V26.2464H41.714V28.8367H49.8255V31.9722H38.0332Z" fill="#016FD0"/>
<path fill-rule="evenodd" clip-rule="evenodd" d="M51.877 17.5215V31.9722H55.4896V26.8599H56.9892L61.2835 31.9722H65.7142L60.9427 26.6554C62.9195 26.5191 64.8962 24.815 64.8962 22.2248C64.8962 19.1574 62.5105 17.5215 59.8521 17.5215H51.877ZM55.4896 20.7933H59.5795C60.6019 20.7933 61.2835 21.5431 61.2835 22.2929C61.2835 23.2472 60.3293 23.7925 59.6476 23.7925H55.4896V20.7933Z" fill="#016FD0"/>
<path fill-rule="evenodd" clip-rule="evenodd" d="M70.1418 31.9722H66.4609V17.5215H70.1418V31.9722Z" fill="#016FD0"/>
<path fill-rule="evenodd" clip-rule="evenodd" d="M78.8666 31.9722H78.0486C74.2314 31.9722 71.8457 28.973 71.8457 24.815C71.8457 20.5889 74.1633 17.5215 79.0029 17.5215H82.9564V20.9297H78.7984C76.8217 20.9297 75.4584 22.4974 75.4584 24.815C75.4584 27.6097 77.0261 28.7685 79.3437 28.7685H80.298L78.8666 31.9722Z" fill="#016FD0"/>
<path fill-rule="evenodd" clip-rule="evenodd" d="M86.7088 17.5215L80.5059 31.9722H84.5275L85.6863 29.1093H92.3663L93.5251 31.9722H97.6831L91.4802 17.5215H86.7088V17.5215ZM89.0263 20.8615L91.0712 25.9056H86.9814L89.0263 20.8615Z" fill="#016FD0"/>
<path fill-rule="evenodd" clip-rule="evenodd" d="M98.0215 31.9722V17.5215H102.588L108.451 26.5873V17.5215H112.063V31.9722H107.633L101.634 22.6338V31.9722H98.0215Z" fill="#016FD0"/>
<path fill-rule="evenodd" clip-rule="evenodd" d="M30.6152 57.1939V42.7432H42.3394V46.015H34.2279V48.4689H42.1349V51.5363H34.2279V54.0583H42.3394V57.1939H30.6152Z" fill="#016FD0"/>
<path fill-rule="evenodd" clip-rule="evenodd" d="M88.2148 57.1939V42.7432H100.007V46.015H91.8957V48.4689H99.8027V51.5363H91.8957V54.0583H100.007V57.1939H88.2148Z" fill="#016FD0"/>
<path fill-rule="evenodd" clip-rule="evenodd" d="M42.818 57.1939L48.5437 50.1048L42.6816 42.7432H47.2486L50.725 47.3101L54.2013 42.7432H58.5638L52.7699 49.9685L58.5638 57.1939H53.9968L50.5886 52.7632L47.3168 57.1939H42.818Z" fill="#016FD0"/>
<path fill-rule="evenodd" clip-rule="evenodd" d="M58.9707 42.8115V57.2622H62.6515V52.6953H66.4687C69.6724 52.6953 72.1263 50.9912 72.1263 47.6512C72.1263 44.9246 70.2177 42.8115 66.9459 42.8115H58.9707ZM62.6515 46.0152H66.6732C67.6957 46.0152 68.4455 46.6287 68.4455 47.6512C68.4455 48.6054 67.6957 49.2871 66.6732 49.2871H62.7197V46.0152H62.6515Z" fill="#016FD0"/>
<path fill-rule="evenodd" clip-rule="evenodd" d="M73.6934 42.7432V57.1939H77.306V52.0816H78.8056L83.1 57.1939H87.5306L82.7591 51.8771C84.7359 51.7408 86.7126 50.0367 86.7126 47.4465C86.7126 44.3791 84.3269 42.7432 81.6685 42.7432H73.6934ZM77.306 46.015H81.3959C82.4183 46.015 83.1 46.7648 83.1 47.5146C83.1 48.4689 82.1457 49.0142 81.464 49.0142H77.306V46.015Z" fill="#016FD0"/>
<path fill-rule="evenodd" clip-rule="evenodd" d="M101.712 57.1939V54.0583H108.937C110.027 54.0583 110.436 53.513 110.436 52.8314C110.436 52.2179 109.959 51.6044 108.937 51.6044H105.665C102.802 51.6044 101.234 49.9004 101.234 47.3101C101.234 44.9926 102.666 42.7432 106.892 42.7432H113.913L112.413 46.015H106.347C105.188 46.015 104.847 46.6285 104.847 47.1738C104.847 47.7873 105.256 48.4008 106.142 48.4008H109.55C112.686 48.4008 114.049 50.173 114.049 52.5587C114.049 55.0808 112.55 57.1257 109.346 57.1257L101.712 57.1939Z" fill="#016FD0"/>
<path fill-rule="evenodd" clip-rule="evenodd" d="M114.932 57.1939V54.0583H121.817C122.907 54.0583 123.316 53.513 123.316 52.8314C123.316 52.2179 122.839 51.6044 121.817 51.6044H118.886C116.023 51.6044 114.455 49.9004 114.455 47.3101C114.455 44.9926 115.887 42.7432 120.113 42.7432H126.997L125.498 46.015H119.567C118.409 46.015 118.068 46.6285 118.068 47.1738C118.068 47.7873 118.477 48.4008 119.363 48.4008H122.498C125.634 48.4008 126.997 50.173 126.997 52.5587C126.997 55.0808 125.498 57.1257 122.294 57.1257L114.932 57.1939Z" fill="#016FD0"/>
</svg>
