<svg width="23" height="19" viewBox="0 0 23 19" fill="none" xmlns="http://www.w3.org/2000/svg">
    <path d="M2.19478 5.57028C2.48405 5.77559 3.356 6.38535 4.81068 7.39926C6.2654 8.41317 7.37982 9.19385 8.15398 9.74135C8.23903 9.80137 8.41973 9.93182 8.69617 10.1329C8.97265 10.3341 9.20238 10.4967 9.38519 10.6208C9.56812 10.7447 9.78927 10.8838 10.0489 11.0378C10.3084 11.1916 10.553 11.3073 10.7827 11.3839C11.0124 11.4612 11.225 11.4994 11.4207 11.4994H11.4335H11.4464C11.642 11.4994 11.8548 11.4611 12.0845 11.3839C12.3141 11.3073 12.5589 11.1915 12.8182 11.0378C13.0776 10.8836 13.2988 10.7447 13.4817 10.6208C13.6646 10.4967 13.8942 10.3341 14.1707 10.1329C14.4471 9.93164 14.6281 9.80137 14.7131 9.74135C15.4956 9.19385 17.4865 7.80336 20.685 5.57001C21.306 5.13382 21.8248 4.60749 22.2416 3.99139C22.6587 3.37555 22.867 2.72951 22.867 2.05362C22.867 1.48881 22.6649 1.00532 22.2607 0.603201C21.8566 0.200992 21.378 0 20.8253 0H2.04161C1.38661 0 0.882543 0.222436 0.529499 0.667307C0.1765 1.11227 0 1.66845 0 2.3358C0 2.87485 0.234022 3.45899 0.701842 4.08786C1.16962 4.71677 1.66743 5.21096 2.19478 5.57028Z" fill="currentColor"/>
    <path d="M21.5908 6.94349C18.8008 8.84287 16.6822 10.319 15.2362 11.3716C14.7513 11.7308 14.358 12.0112 14.0559 12.2122C13.7538 12.4133 13.352 12.6186 12.85 12.8281C12.3482 13.038 11.8805 13.1426 11.4466 13.1426H11.4335H11.4207C10.9869 13.1426 10.5189 13.038 10.0171 12.8281C9.51525 12.6186 9.11322 12.4133 8.81122 12.2122C8.5093 12.0112 8.11581 11.7308 7.63096 11.3716C6.48244 10.5245 4.36847 9.04831 1.28895 6.94349C0.803925 6.61856 0.374319 6.24611 0 5.8269V16.0174C0 16.5825 0.19983 17.0657 0.599714 17.4679C0.999509 17.8702 1.48025 18.0713 2.04175 18.0713H20.8254C21.3868 18.0713 21.8675 17.8702 22.2673 17.4679C22.6673 17.0656 22.8671 16.5826 22.8671 16.0174V5.8269C22.5012 6.23743 22.076 6.60988 21.5908 6.94349Z" fill="#currentColor"/>
</svg>
