<svg width="102" height="102" viewBox="0 0 102 102" fill="none" xmlns="http://www.w3.org/2000/svg">
<g opacity="0.65">
<path d="M95.625 25.5H31.875C29.1656 25.5 27.0938 27.5719 27.0938 30.2812V82.875C27.0938 85.5844 29.1656 87.6562 31.875 87.6562H74.2687L86.5406 99.9281C87.4969 100.884 89.25 100.247 89.25 98.8125V87.6562H95.625C98.3344 87.6562 100.406 85.5844 100.406 82.875V30.2812C100.406 27.5719 98.3344 25.5 95.625 25.5ZM85.7437 48.2906L60.0844 73.95C59.4469 74.5875 58.4906 74.5875 57.8531 73.95L41.7563 57.8531C41.1188 57.2156 41.1188 56.2594 41.7563 55.6219L48.45 48.9281C49.0875 48.2906 50.0437 48.2906 50.6812 48.9281L58.9688 57.2156L76.8188 39.3656C77.4563 38.7281 78.4125 38.7281 79.05 39.3656L85.7437 46.0594C86.3812 46.5375 86.3812 47.6531 85.7437 48.2906Z" fill="#2AB27B"/>
</g>
<path d="M68.5312 1.59375H23.9062C21.1969 1.59375 19.125 3.66562 19.125 6.375V31.875C19.125 34.5844 21.1969 36.6562 23.9062 36.6562H36.6562V47.8125C36.6562 49.2469 38.4094 49.8844 39.3656 48.9281L51.6375 36.6562H68.5312C71.2406 36.6562 73.3125 34.5844 73.3125 31.875V6.375C73.3125 3.66562 71.2406 1.59375 68.5312 1.59375ZM70.125 31.875C70.125 32.8312 69.4875 33.4688 68.5312 33.4688H51C50.5219 33.4688 50.2031 33.6281 49.8844 33.9469L39.8438 43.9875V35.0625C39.8438 34.1063 39.2062 33.4688 38.25 33.4688H23.9062C22.95 33.4688 22.3125 32.8312 22.3125 31.875V6.375C22.3125 5.41875 22.95 4.78125 23.9062 4.78125H68.5312C69.4875 4.78125 70.125 5.41875 70.125 6.375V31.875Z" fill="#404A57"/>
<path d="M63.75 9.5625H28.6875C27.7312 9.5625 27.0938 10.2 27.0938 11.1562C27.0938 12.1125 27.7312 12.75 28.6875 12.75H63.75C64.7062 12.75 65.3438 12.1125 65.3438 11.1562C65.3438 10.2 64.7062 9.5625 63.75 9.5625Z" fill="#404A57"/>
<path d="M63.75 17.5312H28.6875C27.7312 17.5312 27.0938 18.1687 27.0938 19.125C27.0938 20.0812 27.7312 20.7188 28.6875 20.7188H63.75C64.7062 20.7188 65.3438 20.0812 65.3438 19.125C65.3438 18.1687 64.7062 17.5312 63.75 17.5312Z" fill="#404A57"/>
<path d="M63.75 25.5H44.625C43.6687 25.5 43.0312 26.1375 43.0312 27.0938C43.0312 28.05 43.6687 28.6875 44.625 28.6875H63.75C64.7062 28.6875 65.3438 28.05 65.3438 27.0938C65.3438 26.1375 64.7062 25.5 63.75 25.5Z" fill="#404A57"/>
<path d="M28.8469 60.0844C31.7156 58.0125 33.4688 54.825 33.4688 51C33.4688 44.7844 28.5281 39.8438 22.3125 39.8438C16.0969 39.8438 11.1562 44.7844 11.1562 51C11.1562 54.6656 13.0687 58.0125 15.7781 60.0844C7.49062 62.7938 1.59375 70.6031 1.59375 79.6875C1.59375 80.6437 2.23125 81.2812 3.1875 81.2812H41.4375C42.3937 81.2812 43.0312 80.6437 43.0312 79.6875C43.0312 70.6031 37.1344 62.7938 28.8469 60.0844ZM14.3438 51C14.3438 46.5375 17.85 43.0312 22.3125 43.0312C26.775 43.0312 30.2812 46.5375 30.2812 51C30.2812 55.4625 26.775 58.9688 22.3125 58.9688C17.85 58.9688 14.3438 55.4625 14.3438 51ZM4.78125 78.0938C5.57812 69.1688 13.0687 62.1562 22.3125 62.1562C31.5562 62.1562 38.8875 69.1688 39.8438 78.0938H4.78125Z" fill="#404A57"/>
</svg>
