<?xml version="1.0" encoding="UTF-8"?>
<!DOCTYPE svg PUBLIC "-//W3C//DTD SVG 1.1//EN" "http://www.w3.org/Graphics/SVG/1.1/DTD/svg11.dtd">
<svg xmlns="http://www.w3.org/2000/svg" version="1.1" width="48px" height="48px" style="shape-rendering:geometricPrecision; text-rendering:geometricPrecision; image-rendering:optimizeQuality; fill-rule:evenodd; clip-rule:evenodd" xmlns:xlink="http://www.w3.org/1999/xlink">
<g><path style="opacity:0.954" fill="#228ae5" d="M 17.5,-0.5 C 26.8333,-0.5 36.1667,-0.5 45.5,-0.5C 45.8333,0.5 46.5,1.16667 47.5,1.5C 47.5,16.1667 47.5,30.8333 47.5,45.5C 46.5,45.8333 45.8333,46.5 45.5,47.5C 36.1667,47.5 26.8333,47.5 17.5,47.5C 17.2172,46.7109 16.7172,46.0442 16,45.5C 15.5008,40.8452 15.3342,36.1785 15.5,31.5C 16.5,31.5 17.5,31.5 18.5,31.5C 18.335,34.8499 18.5017,38.1832 19,41.5C 19.3076,42.3081 19.8076,42.9747 20.5,43.5C 27.4495,44.6301 34.4495,44.7968 41.5,44C 42.6667,43.5 43.5,42.6667 44,41.5C 44.6667,29.5 44.6667,17.5 44,5.5C 43.5,4.33333 42.6667,3.5 41.5,3C 34.4495,2.20323 27.4495,2.3699 20.5,3.5C 19.8076,4.02527 19.3076,4.69194 19,5.5C 18.5017,8.81677 18.335,12.1501 18.5,15.5C 17.5,15.5 16.5,15.5 15.5,15.5C 15.3342,10.8215 15.5008,6.1548 16,1.5C 16.7172,0.955796 17.2172,0.28913 17.5,-0.5 Z"/></g>
<g><path style="opacity:0.775" fill="#218ae5" d="M -0.5,25.5 C -0.5,24.1667 -0.5,22.8333 -0.5,21.5C 7.83999,21.6664 16.1733,21.4997 24.5,21C 21.6026,19.2845 20.2693,16.7845 20.5,13.5C 25.395,15.3911 29.0617,18.7244 31.5,23.5C 29.0617,28.2756 25.395,31.6089 20.5,33.5C 20.2693,30.2155 21.6026,27.7155 24.5,26C 16.1733,25.5003 7.83999,25.3336 -0.5,25.5 Z"/></g>
</svg>
