<svg width="100" height="77" viewBox="0 0 100 77" fill="none" xmlns="http://www.w3.org/2000/svg">
<path d="M18.0166 76.6677V71.5678C18.0166 69.6128 16.8266 68.3378 14.7866 68.3378C13.7667 68.3378 12.6617 68.6778 11.8967 69.7828C11.3017 68.8478 10.4517 68.3378 9.17669 68.3378C8.32669 68.3378 7.4767 68.5928 6.79671 69.5278V68.5078H5.01172V76.6677H6.79671V72.1628C6.79671 70.7178 7.5617 70.0378 8.75169 70.0378C9.94168 70.0378 10.5367 70.8028 10.5367 72.1628V76.6677H12.3217V72.1628C12.3217 70.7178 13.1717 70.0378 14.2767 70.0378C15.4666 70.0378 16.0616 70.8028 16.0616 72.1628V76.6677H18.0166ZM44.4514 68.5078H41.5615V66.0428H39.7765V68.5078H38.1615V70.1228H39.7765V73.8628C39.7765 75.7328 40.5415 76.8377 42.5814 76.8377C43.3464 76.8377 44.1964 76.5827 44.7914 76.2427L44.2814 74.7128C43.7714 75.0528 43.1764 75.1378 42.7514 75.1378C41.9014 75.1378 41.5615 74.6278 41.5615 73.7778V70.1228H44.4514V68.5078ZM59.5813 68.3378C58.5613 68.3378 57.8813 68.8478 57.4563 69.5278V68.5078H55.6713V76.6677H57.4563V72.0778C57.4563 70.7178 58.0513 69.9528 59.1563 69.9528C59.4963 69.9528 59.9213 70.0378 60.2613 70.1228L60.7713 68.4228C60.4313 68.3378 59.9213 68.3378 59.5813 68.3378ZM36.7165 69.1878C35.8665 68.5928 34.6765 68.3378 33.4015 68.3378C31.3615 68.3378 30.0015 69.3578 30.0015 70.9728C30.0015 72.3328 31.0215 73.0978 32.8065 73.3528L33.6565 73.4378C34.5915 73.6078 35.1015 73.8628 35.1015 74.2878C35.1015 74.8828 34.4215 75.3078 33.2315 75.3078C32.0415 75.3078 31.1065 74.8828 30.5115 74.4578L29.6615 75.8178C30.5965 76.4977 31.8715 76.8377 33.1465 76.8377C35.5265 76.8377 36.8865 75.7328 36.8865 74.2028C36.8865 72.7578 35.7815 71.9928 34.0815 71.7378L33.2315 71.6528C32.4665 71.5678 31.8715 71.3978 31.8715 70.8878C31.8715 70.2928 32.4665 69.9528 33.4015 69.9528C34.4215 69.9528 35.4415 70.3778 35.9515 70.6328L36.7165 69.1878ZM84.1461 68.3378C83.1262 68.3378 82.4462 68.8478 82.0212 69.5278V68.5078H80.2362V76.6677H82.0212V72.0778C82.0212 70.7178 82.6162 69.9528 83.7211 69.9528C84.0611 69.9528 84.4861 70.0378 84.8261 70.1228L85.3361 68.4228C84.9961 68.3378 84.4861 68.3378 84.1461 68.3378ZM61.3663 72.5878C61.3663 75.0528 63.0663 76.8377 65.7013 76.8377C66.8913 76.8377 67.7413 76.5827 68.5913 75.9027L67.7413 74.4578C67.0613 74.9678 66.3813 75.2228 65.6163 75.2228C64.1713 75.2228 63.1513 74.2028 63.1513 72.5878C63.1513 71.0578 64.1713 70.0378 65.6163 69.9528C66.3813 69.9528 67.0613 70.2078 67.7413 70.7178L68.5913 69.2728C67.7413 68.5928 66.8913 68.3378 65.7013 68.3378C63.0663 68.3378 61.3663 70.1228 61.3663 72.5878ZM77.8562 72.5878V68.5078H76.0712V69.5278C75.4762 68.7628 74.6262 68.3378 73.5212 68.3378C71.2262 68.3378 69.4413 70.1228 69.4413 72.5878C69.4413 75.0528 71.2262 76.8377 73.5212 76.8377C74.7112 76.8377 75.5612 76.4127 76.0712 75.6478V76.6677H77.8562V72.5878ZM71.3112 72.5878C71.3112 71.1428 72.2462 69.9528 73.7762 69.9528C75.2212 69.9528 76.2412 71.0578 76.2412 72.5878C76.2412 74.0328 75.2212 75.2228 73.7762 75.2228C72.2462 75.1378 71.3112 74.0328 71.3112 72.5878ZM49.9764 68.3378C47.5964 68.3378 45.8964 70.0378 45.8964 72.5878C45.8964 75.1378 47.5964 76.8377 50.0614 76.8377C51.2514 76.8377 52.4414 76.4977 53.3764 75.7328L52.5264 74.4578C51.8464 74.9678 50.9964 75.3078 50.1464 75.3078C49.0414 75.3078 47.9364 74.7978 47.6814 73.3528H53.7164V72.6728C53.8014 70.0378 52.2714 68.3378 49.9764 68.3378ZM49.9764 69.8678C51.0814 69.8678 51.8464 70.5478 52.0164 71.8228H47.7664C47.9364 70.7178 48.7014 69.8678 49.9764 69.8678ZM94.2611 72.5878V65.2778H92.4761V69.5278C91.8811 68.7628 91.0311 68.3378 89.9261 68.3378C87.6311 68.3378 85.8461 70.1228 85.8461 72.5878C85.8461 75.0528 87.6311 76.8377 89.9261 76.8377C91.1161 76.8377 91.9661 76.4127 92.4761 75.6478V76.6677H94.2611V72.5878ZM87.7161 72.5878C87.7161 71.1428 88.6511 69.9528 90.1811 69.9528C91.6261 69.9528 92.6461 71.0578 92.6461 72.5878C92.6461 74.0328 91.6261 75.2228 90.1811 75.2228C88.6511 75.1378 87.7161 74.0328 87.7161 72.5878ZM28.0466 72.5878V68.5078H26.2616V69.5278C25.6666 68.7628 24.8166 68.3378 23.7116 68.3378C21.4166 68.3378 19.6316 70.1228 19.6316 72.5878C19.6316 75.0528 21.4166 76.8377 23.7116 76.8377C24.9016 76.8377 25.7516 76.4127 26.2616 75.6478V76.6677H28.0466V72.5878ZM21.4166 72.5878C21.4166 71.1428 22.3516 69.9528 23.8816 69.9528C25.3266 69.9528 26.3466 71.0578 26.3466 72.5878C26.3466 74.0328 25.3266 75.2228 23.8816 75.2228C22.3516 75.1378 21.4166 74.0328 21.4166 72.5878Z" fill="black"/>
<path d="M62.8979 6.5459H36.123V54.6555H62.8979V6.5459Z" fill="#FF5F00"/>
<path d="M37.8247 30.5998C37.8247 20.8248 42.4147 12.1549 49.4696 6.54495C44.2847 2.46498 37.7397 0 30.5998 0C13.6849 0 0 13.6849 0 30.5998C0 47.5147 13.6849 61.1995 30.5998 61.1995C37.7397 61.1995 44.2847 58.7346 49.4696 54.6546C42.4147 49.1296 37.8247 40.3747 37.8247 30.5998Z" fill="#EB001B"/>
<path d="M99.0224 30.5998C99.0224 47.5147 85.3375 61.1995 68.4226 61.1995C61.2827 61.1995 54.7377 58.7346 49.5527 54.6546C56.6927 49.0446 61.1977 40.3747 61.1977 30.5998C61.1977 20.8248 56.6077 12.1549 49.5527 6.54495C54.7377 2.46498 61.2827 0 68.4226 0C85.3375 0 99.0224 13.7699 99.0224 30.5998Z" fill="#F79E1B"/>
</svg>
