<svg width="143" height="48" viewBox="0 0 143 48" fill="none" xmlns="http://www.w3.org/2000/svg">
<path d="M73.9562 15.3454C73.8746 22.0316 79.6887 25.7631 84.0686 27.9814C88.5688 30.2578 90.0803 31.7173 90.0631 33.7527C90.0288 36.8681 86.4733 38.2429 83.1454 38.2964C77.3399 38.3902 73.9648 36.6673 71.281 35.364L69.1898 45.5362C71.8822 46.8261 76.8675 47.9509 82.0376 48C94.1725 48 102.112 41.7735 102.155 32.119C102.202 19.8668 85.8507 19.1884 85.9623 13.7117C86.001 12.0513 87.5253 10.2793 90.8661 9.82853C92.5193 9.60089 97.0839 9.42682 102.258 11.904L104.289 2.06212C101.507 1.00874 97.9298 -4.39712e-07 93.4769 -4.39712e-07C82.0547 -4.39712e-07 74.0206 6.31132 73.9562 15.3454ZM123.806 0.848055C121.59 0.848055 119.722 2.19156 118.889 4.25367L101.554 47.2769H113.68L116.094 40.3452H130.912L132.312 47.2769H143L133.673 0.848055H123.806ZM125.502 13.3904L129.001 30.8246H119.417L125.502 13.3904ZM59.2534 0.848055L49.6949 47.2769H61.2501L70.8044 0.848055H59.2534ZM42.1588 0.848055L30.1313 32.4493L25.2661 5.57932C24.695 2.57988 22.4406 0.848055 19.9372 0.848055H0.274818L0 2.19602C4.03639 3.10656 8.62243 4.57504 11.4007 6.14618C13.1011 7.10582 13.5863 7.94495 14.1446 10.2258L23.3596 47.2769H35.5718L54.2938 0.848055H42.1588Z" fill="url(#paint0_linear)"/>
<defs>
<linearGradient id="paint0_linear" x1="65.7431" y1="48.963" x2="67.1872" y2="-0.330651" gradientUnits="userSpaceOnUse">
<stop stop-color="#222357"/>
<stop offset="1" stop-color="#254AA5"/>
</linearGradient>
</defs>
</svg>
