<svg width="101" height="81" viewBox="0 0 101 81" fill="none" xmlns="http://www.w3.org/2000/svg">
    <path opacity="0.65" d="M74 1C68.6599 1 63.4397 2.5542 58.9996 5.46605C54.5595 8.37791 51.0988 12.5166 49.0553 17.3589C47.0117 22.2011 46.477 27.5294 47.5188 32.6699C48.5606 37.8104 51.1321 42.5322 54.9081 46.2383C58.6841 49.9444 63.4951 52.4683 68.7326 53.4908C73.9701 54.5133 79.3988 53.9885 84.3325 51.9828C89.2661 49.9771 93.4829 46.5805 96.4497 42.2226C99.4165 37.8647 101 32.7412 101 27.5C100.992 20.4742 98.1446 13.7385 93.0829 8.77052C88.0212 3.80255 81.1583 1.00802 74 1ZM88.9464 20.9141L69.6607 36.057C69.4136 36.251 69.1022 36.3488 68.7863 36.3315C68.4703 36.3143 68.1719 36.1833 67.9482 35.9636L58.9482 27.1303C58.7139 26.8923 58.5844 26.5735 58.5873 26.2426C58.5902 25.9118 58.7254 25.5953 58.9638 25.3613C59.2022 25.1273 59.5247 24.9946 59.8618 24.9917C60.1989 24.9889 60.5237 25.1161 60.7662 25.3459L68.9523 33.3805L87.338 18.943C87.4699 18.8394 87.6212 18.7624 87.7834 18.7162C87.9457 18.6701 88.1155 18.6557 88.2834 18.674C88.4513 18.6923 88.6138 18.7428 88.7618 18.8228C88.9097 18.9027 89.0402 19.0105 89.1457 19.1399C89.2512 19.2693 89.3298 19.4179 89.3768 19.5771C89.4238 19.7363 89.4384 19.903 89.4198 20.0678C89.4012 20.2325 89.3497 20.3921 89.2682 20.5373C89.1868 20.6825 89.077 20.8105 88.9451 20.9141H88.9464Z" fill="#2AB27B"/>
    <path d="M56.375 8.56248H44.9255C44.5971 7.63347 43.9896 6.82863 43.1862 6.25806C42.3829 5.68749 41.4229 5.37907 40.4375 5.37498H37.0476C36.6943 4.00653 35.8962 2.79427 34.7789 1.92878C33.6616 1.06329 32.2883 0.593628 30.875 0.593628C29.4617 0.593628 28.0884 1.06329 26.9711 1.92878C25.8538 2.79427 25.0557 4.00653 24.7024 5.37498H21.3125C20.3271 5.37907 19.3671 5.68749 18.5638 6.25806C17.7604 6.82863 17.1529 7.63347 16.8245 8.56248H5.375C4.10693 8.56248 2.8908 9.06622 1.99415 9.96288C1.09749 10.8595 0.59375 12.0757 0.59375 13.3437V75.5C0.59375 76.7681 1.09749 77.9842 1.99415 78.8808C2.8908 79.7775 4.10693 80.2812 5.375 80.2812H56.375C57.6431 80.2812 58.8592 79.7775 59.7559 78.8808C60.6525 77.9842 61.1562 76.7681 61.1562 75.5V13.3437C61.1562 12.0757 60.6525 10.8595 59.7559 9.96288C58.8592 9.06622 57.6431 8.56248 56.375 8.56248ZM21.3125 8.56248H26.0938C26.5164 8.56248 26.9218 8.39457 27.2207 8.09568C27.5196 7.7968 27.6875 7.39142 27.6875 6.96873C27.6875 6.12335 28.0233 5.3126 28.6211 4.71483C29.2189 4.11706 30.0296 3.78123 30.875 3.78123C31.7204 3.78123 32.5311 4.11706 33.1289 4.71483C33.7267 5.3126 34.0625 6.12335 34.0625 6.96873C34.0625 7.39142 34.2304 7.7968 34.5293 8.09568C34.8282 8.39457 35.2336 8.56248 35.6562 8.56248H40.4375C40.8602 8.56248 41.2656 8.73039 41.5645 9.02928C41.8633 9.32817 42.0312 9.73354 42.0312 10.1562C42.0312 10.5789 41.8633 10.9843 41.5645 11.2832C41.2656 11.5821 40.8602 11.75 40.4375 11.75H21.3125C20.8898 11.75 20.4844 11.5821 20.1855 11.2832C19.8867 10.9843 19.7188 10.5789 19.7188 10.1562C19.7188 9.73354 19.8867 9.32817 20.1855 9.02928C20.4844 8.73039 20.8898 8.56248 21.3125 8.56248ZM57.9688 75.5C57.9688 75.9227 57.8008 76.3281 57.502 76.6269C57.2031 76.9258 56.7977 77.0937 56.375 77.0937H5.375C4.95231 77.0937 4.54693 76.9258 4.24805 76.6269C3.94916 76.3281 3.78125 75.9227 3.78125 75.5V13.3437C3.78125 12.921 3.94916 12.5157 4.24805 12.2168C4.54693 11.9179 4.95231 11.75 5.375 11.75H16.8245C17.1529 12.679 17.7604 13.4838 18.5638 14.0544C19.3671 14.625 20.3271 14.9334 21.3125 14.9375H40.4375C41.4229 14.9334 42.3829 14.625 43.1862 14.0544C43.9896 13.4838 44.5971 12.679 44.9255 11.75H56.375C56.7977 11.75 57.2031 11.9179 57.502 12.2168C57.8008 12.5157 57.9688 12.921 57.9688 13.3437V75.5Z" fill="#404A57"/>
    <path d="M26.0938 37.25C26.0938 37.6727 26.2617 38.0781 26.5605 38.377C26.8594 38.6758 27.2648 38.8438 27.6875 38.8438H34.0625C34.4852 38.8438 34.8906 38.6758 35.1895 38.377C35.4883 38.0781 35.6562 37.6727 35.6562 37.25V33.2656H39.6406C40.0633 33.2656 40.4687 33.0977 40.7676 32.7988C41.0665 32.4999 41.2344 32.0946 41.2344 31.6719V25.2969C41.2344 24.8742 41.0665 24.4688 40.7676 24.1699C40.4687 23.871 40.0633 23.7031 39.6406 23.7031H35.6562V19.7188C35.6562 19.2961 35.4883 18.8907 35.1895 18.5918C34.8906 18.2929 34.4852 18.125 34.0625 18.125H27.6875C27.2648 18.125 26.8594 18.2929 26.5605 18.5918C26.2617 18.8907 26.0938 19.2961 26.0938 19.7188V23.7031H22.1094C21.6867 23.7031 21.2813 23.871 20.9824 24.1699C20.6835 24.4688 20.5156 24.8742 20.5156 25.2969V31.6719C20.5156 32.0946 20.6835 32.4999 20.9824 32.7988C21.2813 33.0977 21.6867 33.2656 22.1094 33.2656H26.0938V37.25ZM23.7031 30.0781V26.8906H27.6875C28.1102 26.8906 28.5156 26.7227 28.8145 26.4238C29.1133 26.1249 29.2812 25.7196 29.2812 25.2969V21.3125H32.4688V25.2969C32.4688 25.7196 32.6367 26.1249 32.9355 26.4238C33.2344 26.7227 33.6398 26.8906 34.0625 26.8906H38.0469V30.0781H34.0625C33.6398 30.0781 33.2344 30.246 32.9355 30.5449C32.6367 30.8438 32.4688 31.2492 32.4688 31.6719V35.6562H29.2812V31.6719C29.2812 31.2492 29.1133 30.8438 28.8145 30.5449C28.5156 30.246 28.1102 30.0781 27.6875 30.0781H23.7031Z" fill="#404A57"/>
    <path d="M18.125 42.0312H10.1562C9.73356 42.0312 9.32818 42.1992 9.0293 42.498C8.73041 42.7969 8.5625 43.2023 8.5625 43.625V51.5938C8.5625 52.0164 8.73041 52.4218 9.0293 52.7207C9.32818 53.0196 9.73356 53.1875 10.1562 53.1875H18.125C18.5477 53.1875 18.9531 53.0196 19.252 52.7207C19.5508 52.4218 19.7188 52.0164 19.7188 51.5938V43.625C19.7188 43.2023 19.5508 42.7969 19.252 42.498C18.9531 42.1992 18.5477 42.0312 18.125 42.0312ZM16.5312 50H11.75V45.2188H16.5312V50Z" fill="#404A57"/>
    <path d="M18.125 57.9688H10.1562C9.73356 57.9688 9.32818 58.1367 9.0293 58.4355C8.73041 58.7344 8.5625 59.1398 8.5625 59.5625V67.5312C8.5625 67.9539 8.73041 68.3593 9.0293 68.6582C9.32818 68.9571 9.73356 69.125 10.1562 69.125H18.125C18.5477 69.125 18.9531 68.9571 19.252 68.6582C19.5508 68.3593 19.7188 67.9539 19.7188 67.5312V59.5625C19.7188 59.1398 19.5508 58.7344 19.252 58.4355C18.9531 58.1367 18.5477 57.9688 18.125 57.9688ZM16.5312 65.9375H11.75V61.1562H16.5312V65.9375Z" fill="#404A57"/>
    <path d="M51.5938 42.0312H24.5C24.0773 42.0312 23.6719 42.1992 23.373 42.498C23.0742 42.7969 22.9062 43.2023 22.9062 43.625C22.9062 44.0477 23.0742 44.4531 23.373 44.752C23.6719 45.0508 24.0773 45.2188 24.5 45.2188H51.5938C52.0164 45.2188 52.4218 45.0508 52.7207 44.752C53.0196 44.4531 53.1875 44.0477 53.1875 43.625C53.1875 43.2023 53.0196 42.7969 52.7207 42.498C52.4218 42.1992 52.0164 42.0312 51.5938 42.0312Z" fill="#404A57"/>
    <path d="M24.5 51.5938H40.4375C40.8602 51.5938 41.2656 51.4258 41.5645 51.127C41.8633 50.8281 42.0312 50.4227 42.0312 50C42.0312 49.5773 41.8633 49.1719 41.5645 48.873C41.2656 48.5742 40.8602 48.4062 40.4375 48.4062H24.5C24.0773 48.4062 23.6719 48.5742 23.373 48.873C23.0742 49.1719 22.9062 49.5773 22.9062 50C22.9062 50.4227 23.0742 50.8281 23.373 51.127C23.6719 51.4258 24.0773 51.5938 24.5 51.5938Z" fill="#404A57"/>
    <path d="M51.5938 57.9688H24.5C24.0773 57.9688 23.6719 58.1367 23.373 58.4355C23.0742 58.7344 22.9062 59.1398 22.9062 59.5625C22.9062 59.9852 23.0742 60.3906 23.373 60.6895C23.6719 60.9883 24.0773 61.1562 24.5 61.1562H51.5938C52.0164 61.1562 52.4218 60.9883 52.7207 60.6895C53.0196 60.3906 53.1875 59.9852 53.1875 59.5625C53.1875 59.1398 53.0196 58.7344 52.7207 58.4355C52.4218 58.1367 52.0164 57.9688 51.5938 57.9688Z" fill="#404A57"/>
    <path d="M40.4375 64.3438H24.5C24.0773 64.3438 23.6719 64.5117 23.373 64.8105C23.0742 65.1094 22.9062 65.5148 22.9062 65.9375C22.9062 66.3602 23.0742 66.7656 23.373 67.0645C23.6719 67.3633 24.0773 67.5312 24.5 67.5312H40.4375C40.8602 67.5312 41.2656 67.3633 41.5645 67.0645C41.8633 66.7656 42.0312 66.3602 42.0312 65.9375C42.0312 65.5148 41.8633 65.1094 41.5645 64.8105C41.2656 64.5117 40.8602 64.3438 40.4375 64.3438Z" fill="#404A57"/>
</svg>
