<svg width="24" height="25" viewBox="0 0 24 25" fill="none" xmlns="http://www.w3.org/2000/svg">
<g clip-path="url(#clip0_5875_378431)">
<path d="M18.813 10.5C19.122 10.5 19.414 10.357 19.603 10.113C19.792 9.869 19.858 9.551 19.782 9.252C19.471 8.035 18.837 6.923 17.949 6.035L14.464 2.55C13.142 1.228 11.384 0.5 9.514 0.5H4.999C2.243 0.5 0 2.743 0 5.5V19.5C0 22.257 2.243 24.5 5 24.5H8C8.552 24.5 9 24.052 9 23.5C9 22.948 8.552 22.5 8 22.5H5C3.346 22.5 2 21.154 2 19.5V5.5C2 3.846 3.346 2.5 5 2.5H9.515C9.678 2.5 9.84 2.508 10 2.523V7.5C10 9.154 11.346 10.5 13 10.5H18.813ZM12 7.5V3.159C12.379 3.377 12.732 3.647 13.05 3.965L16.535 7.45C16.849 7.764 17.118 8.118 17.338 8.5H13C12.449 8.5 12 8.051 12 7.5ZM23.122 12.379C21.988 11.245 20.012 11.245 18.879 12.379L12.172 19.086C11.417 19.841 11 20.846 11 21.915V23.501C11 24.053 11.448 24.501 12 24.501H13.586C14.655 24.501 15.659 24.084 16.414 23.329L23.121 16.622C23.688 16.055 24 15.302 24 14.5C24 13.698 23.688 12.945 23.122 12.379ZM21.707 15.207L14.999 21.914C14.622 22.292 14.12 22.5 13.585 22.5H12.999V21.914C12.999 21.38 13.207 20.878 13.585 20.5L20.293 13.793C20.67 13.415 21.329 13.415 21.707 13.793C21.896 13.981 22 14.232 22 14.5C22 14.768 21.896 15.018 21.707 15.207Z" fill="#3386C7"/>
</g>
<defs>
<clipPath id="clip0_5875_378431">
<rect width="24" height="24" fill="white" transform="translate(0 0.5)"/>
</clipPath>
</defs>
</svg>
