<svg width="17" height="16" viewBox="0 0 17 16" fill="none" xmlns="http://www.w3.org/2000/svg">
<path d="M15.1666 2.66667H11.8333V1.33333C11.8333 0.979711 11.6928 0.640573 11.4427 0.390524C11.1927 0.140476 10.8535 0 10.4999 0L6.49992 0C6.1463 0 5.80716 0.140476 5.55711 0.390524C5.30706 0.640573 5.16659 0.979711 5.16659 1.33333V2.66667H1.83325V4H3.16659V14C3.16659 14.5304 3.3773 15.0391 3.75237 15.4142C4.12744 15.7893 4.63615 16 5.16659 16H11.8333C12.3637 16 12.8724 15.7893 13.2475 15.4142C13.6225 15.0391 13.8333 14.5304 13.8333 14V4H15.1666V2.66667ZM6.49992 1.33333H10.4999V2.66667H6.49992V1.33333ZM12.4999 14C12.4999 14.1768 12.4297 14.3464 12.3047 14.4714C12.1796 14.5964 12.0101 14.6667 11.8333 14.6667H5.16659C4.98977 14.6667 4.82021 14.5964 4.69518 14.4714C4.57016 14.3464 4.49992 14.1768 4.49992 14V4H12.4999V14Z" fill="white"/>
<path d="M7.69985 6.6665H6.09985V11.9998H7.69985V6.6665Z" fill="white"/>
<path d="M10.9003 6.6665H9.30029V11.9998H10.9003V6.6665Z" fill="white"/>
</svg>
