<svg width="17" height="17" viewBox="0 0 17 17" fill="none" xmlns="http://www.w3.org/2000/svg">
<path d="M9.41674 1.16675C9.41674 0.989944 9.48698 0.820375 9.612 0.69535C9.73703 0.570326 9.9066 0.500088 10.0834 0.500088C11.8509 0.502029 13.5455 1.20503 14.7953 2.45485C16.0451 3.70468 16.7481 5.39924 16.7501 7.16676C16.7501 7.34357 16.6798 7.51314 16.5548 7.63816C16.4298 7.76318 16.2602 7.83342 16.0834 7.83342C15.9066 7.83342 15.737 7.76318 15.612 7.63816C15.487 7.51314 15.4167 7.34357 15.4167 7.16676C15.4152 5.75276 14.8527 4.39712 13.8529 3.39727C12.853 2.39742 11.4974 1.83501 10.0834 1.83342C9.9066 1.83342 9.73703 1.76318 9.612 1.63816C9.48698 1.51314 9.41674 1.34357 9.41674 1.16675ZM10.0834 4.50009C10.7907 4.50009 11.4689 4.78104 11.969 5.28114C12.4691 5.78123 12.7501 6.45951 12.7501 7.16676C12.7501 7.34357 12.8203 7.51314 12.9453 7.63816C13.0704 7.76318 13.2399 7.83342 13.4167 7.83342C13.5936 7.83342 13.7631 7.76318 13.8881 7.63816C14.0132 7.51314 14.0834 7.34357 14.0834 7.16676C14.0823 6.10621 13.6606 5.08941 12.9107 4.3395C12.1607 3.58958 11.1439 3.16781 10.0834 3.16675C9.9066 3.16675 9.73703 3.23699 9.612 3.36202C9.48698 3.48704 9.41674 3.65661 9.41674 3.83342C9.41674 4.01023 9.48698 4.1798 9.612 4.30483C9.73703 4.42985 9.9066 4.50009 10.0834 4.50009ZM16.1454 11.6594C16.5317 12.0468 16.7487 12.5716 16.7487 13.1188C16.7487 13.6659 16.5317 14.1907 16.1454 14.5781L15.5387 15.2774C10.0787 20.5048 -3.20793 7.22142 1.93874 1.74409L2.70541 1.07742C3.09325 0.701873 3.61336 0.494121 4.15321 0.499111C4.69306 0.504102 5.20924 0.721434 5.59007 1.10409C5.61074 1.12475 6.84607 2.72942 6.84607 2.72942C7.21263 3.11451 7.41668 3.62604 7.41581 4.15769C7.41494 4.68934 7.20922 5.2002 6.84141 5.58409L6.06941 6.55476C6.49664 7.59283 7.12478 8.53625 7.91775 9.33082C8.71071 10.1254 9.65286 10.7554 10.6901 11.1848L11.6667 10.4081C12.0507 10.0406 12.5614 9.83509 13.0929 9.83434C13.6244 9.8336 14.1358 10.0376 14.5207 10.4041C14.5207 10.4041 16.1247 11.6388 16.1454 11.6594ZM15.2281 12.6288C15.2281 12.6288 13.6327 11.4014 13.6121 11.3808C13.4747 11.2446 13.2891 11.1682 13.0957 11.1682C12.9023 11.1682 12.7167 11.2446 12.5794 11.3808C12.5614 11.3994 11.2167 12.4708 11.2167 12.4708C11.1261 12.5429 11.0183 12.5902 10.9038 12.6079C10.7894 12.6257 10.6723 12.6133 10.5641 12.5721C9.22038 12.0718 7.9999 11.2886 6.9853 10.2755C5.97069 9.26237 5.18567 8.04304 4.68341 6.70009C4.63887 6.59039 4.62435 6.47081 4.64134 6.35365C4.65833 6.23648 4.70621 6.12595 4.78007 6.03342C4.78007 6.03342 5.85141 4.68809 5.86941 4.67076C6.00558 4.53341 6.08199 4.34783 6.08199 4.15442C6.08199 3.96101 6.00558 3.77543 5.86941 3.63809C5.84874 3.61809 4.62141 2.02142 4.62141 2.02142C4.48201 1.89643 4.30007 1.82949 4.1129 1.83432C3.92573 1.83915 3.7475 1.9154 3.61474 2.04742L2.84807 2.71409C-0.913262 7.23676 10.6007 18.1121 14.5641 14.3668L15.1714 13.6668C15.3137 13.5349 15.3992 13.3529 15.4098 13.1592C15.4204 12.9655 15.3552 12.7753 15.2281 12.6288Z" fill="white"/>
</svg>
