<svg width="18" height="18" viewBox="0 0 18 18" fill="none" xmlns="http://www.w3.org/2000/svg">
<path d="M18 9.00009C18 12.3083 15.3082 15 12 15H2.25L3.96975 16.7198C4.263 17.013 4.263 17.487 3.96975 17.7803C3.8235 17.9265 3.6315 18 3.4395 18C3.2475 18 3.0555 17.9265 2.90925 17.7803L0.4395 15.3105C-0.1455 14.7263 -0.1455 13.7738 0.4395 13.1896L2.90925 10.7198C3.2025 10.4266 3.6765 10.4266 3.96975 10.7198C4.263 11.0131 4.263 11.4871 3.96975 11.7803L2.25 13.5H12C14.4818 13.5 16.5 11.4818 16.5 9.00009C16.5 8.58535 16.836 8.2501 17.25 8.2501C17.664 8.2501 18 8.58535 18 9.00009ZM0.75 9.75009C1.164 9.75009 1.5 9.41484 1.5 9.00009C1.5 6.51837 3.51825 4.50014 6 4.50014H15.75L14.0303 6.21987C13.737 6.51312 13.737 6.98711 14.0303 7.28036C14.1765 7.42661 14.3685 7.50011 14.5605 7.50011C14.7525 7.50011 14.9445 7.42661 15.0907 7.28036L17.5605 4.81064C18.1455 4.22639 18.1455 3.2739 17.5605 2.68966L15.0907 0.219935C14.7975 -0.0733117 14.3235 -0.0733117 14.0303 0.219935C13.737 0.513182 13.737 0.987177 14.0303 1.28042L15.75 3.00016H6C2.69175 3.00016 0 5.69188 0 9.00009C0 9.41484 0.336 9.75009 0.75 9.75009Z" fill="#3386C7"/>
</svg>
