<svg width="17" height="17" viewBox="0 0 17 17" fill="none" xmlns="http://www.w3.org/2000/svg">
<g clip-path="url(#clip0_5875_376498)">
<path d="M13.2254 8.49987H10.0834C9.72973 8.49987 9.39059 8.35939 9.14054 8.10934C8.8905 7.85929 8.75002 7.52016 8.75002 7.16653V4.01587C8.75093 3.70919 8.68129 3.40641 8.54651 3.13094C8.41172 2.85547 8.21539 2.61468 7.97269 2.4272C7.74271 2.24507 7.47395 2.11825 7.18716 2.05652C6.90037 1.9948 6.60323 1.99982 6.31869 2.0712C4.70246 2.47241 3.27157 3.41324 2.26267 4.73811C1.25376 6.06298 0.727271 7.69252 0.770261 9.35724C0.813251 11.022 1.42315 12.6222 2.49909 13.8932C3.57503 15.1642 5.05257 16.0299 6.68735 16.3472C8.52542 16.699 10.4285 16.3348 12.0067 15.3292C13.585 14.3235 14.7191 12.7525 15.1767 10.9379C15.2483 10.653 15.2536 10.3554 15.1919 10.0682C15.1303 9.78091 15.0035 9.51166 14.8214 9.2812C14.6317 9.03884 14.3895 8.84262 14.1131 8.70729C13.8366 8.57196 13.5331 8.50105 13.2254 8.49987ZM13.884 10.6119C13.6288 11.6398 13.1051 12.5814 12.3665 13.3405C11.6279 14.0996 10.7009 14.6489 9.68037 14.9323C8.65983 15.2156 7.58236 15.2227 6.55815 14.953C5.53395 14.6833 4.59977 14.1463 3.85116 13.3971C3.10255 12.6479 2.56639 11.7132 2.2975 10.6888C2.02862 9.66437 2.03666 8.5869 2.32082 7.5666C2.60497 6.54631 3.15504 5.61979 3.91475 4.88183C4.67447 4.14387 5.61657 3.62094 6.64469 3.36653C6.73264 3.34456 6.82452 3.34348 6.91297 3.3634C7.00141 3.38331 7.08397 3.42365 7.15402 3.4812C7.23675 3.54427 7.30384 3.62555 7.35008 3.71874C7.39633 3.81192 7.42049 3.9145 7.42069 4.01853V7.16653C7.42069 7.87378 7.70164 8.55205 8.20174 9.05215C8.70183 9.55225 9.38011 9.8332 10.0874 9.8332H13.2287C13.3336 9.83363 13.4371 9.85785 13.5313 9.90404C13.6255 9.95023 13.7081 10.0172 13.7727 10.0999C13.8294 10.1709 13.8688 10.2541 13.888 10.3429C13.9072 10.4317 13.9063 10.5238 13.884 10.6119Z" fill="white"/>
<path d="M16.5173 5.46426C16.2104 4.3359 15.6141 3.30726 14.7875 2.48011C13.961 1.65296 12.9327 1.05598 11.8046 0.748255C11.6863 0.716462 11.5644 0.700324 11.4419 0.700255C11.2658 0.698582 11.091 0.731834 10.9278 0.798091C10.7646 0.864347 10.6161 0.962295 10.4909 1.08627C10.3658 1.21025 10.2664 1.3578 10.1986 1.5204C10.1308 1.683 10.0959 1.85742 10.0959 2.03359V5.16692C10.0959 5.69736 10.3067 6.20606 10.6817 6.58114C11.0568 6.95621 11.5655 7.16692 12.0959 7.16692H15.2419C15.4477 7.16494 15.6503 7.11555 15.8339 7.02258C16.0175 6.9296 16.1771 6.79555 16.3005 6.63085C16.4239 6.46614 16.5076 6.27521 16.5452 6.07288C16.5828 5.87056 16.5732 5.66229 16.5173 5.46426ZM14.8519 5.83359H12.0933C11.9165 5.83359 11.7469 5.76335 11.6219 5.63833C11.4969 5.5133 11.4266 5.34373 11.4266 5.16692L11.4213 2.03826C11.4262 2.03473 11.4319 2.03265 11.4379 2.03226H11.4553C12.3633 2.27965 13.1907 2.76086 13.8546 3.42788C14.5186 4.09491 14.996 4.9244 15.2393 5.83359H14.8519Z" fill="white"/>
</g>
<defs>
<clipPath id="clip0_5875_376498">
<rect width="16" height="16" fill="white" transform="translate(0.75 0.5)"/>
</clipPath>
</defs>
</svg>
