<svg width="8" height="5" viewBox="0 0 8 5" fill="none" xmlns="http://www.w3.org/2000/svg">
<g clip-path="url(#clip0_2003_9053)">
<path d="M7.99919 0.59443C8.00179 0.480174 7.96752 0.367974 7.90109 0.273428C7.83467 0.178882 7.73936 0.106688 7.62852 0.0668846C7.51768 0.027081 7.39678 0.0216448 7.28259 0.0513318C7.1684 0.0810187 7.06667 0.144354 6.99145 0.232531L4.00923 3.59701L1.02806 0.232531C0.981678 0.171534 0.922789 0.120451 0.855031 0.0824798C0.787273 0.0445089 0.712113 0.0204687 0.634296 0.0118642C0.55648 0.00325982 0.477681 0.0102768 0.402801 0.0324757C0.32792 0.0546745 0.258566 0.0915769 0.199126 0.140872C0.139685 0.190167 0.0914688 0.250794 0.0573935 0.318954C0.0233188 0.387114 0.00417993 0.46134 0.00116012 0.536983C-0.00185969 0.612627 0.0112686 0.688057 0.0398082 0.758553C0.0683484 0.829048 0.11164 0.893088 0.166974 0.946664L3.57701 4.79868C3.63042 4.85917 3.69672 4.90775 3.77144 4.94106C3.84615 4.97437 3.92747 4.99161 4.00976 4.99161C4.09204 4.99161 4.17336 4.97437 4.24808 4.94106C4.32279 4.90775 4.38915 4.85917 4.44256 4.79868L7.85588 0.946664C7.94531 0.849356 7.99615 0.724545 7.99932 0.59443L7.99919 0.59443Z" fill="#2D85C9"/>
</g>
<defs>
<clipPath id="clip0_2003_9053">
<rect width="5" height="8" fill="white" transform="translate(8) rotate(90)"/>
</clipPath>
</defs>
</svg>
