<svg width="16" height="16" viewBox="0 0 16 16" fill="none" xmlns="http://www.w3.org/2000/svg">
<g clip-path="url(#clip0_5640_7646)">
<path d="M15.3332 7.3335H13.9998V6.00015C13.9998 5.63196 13.7013 5.3335 13.3332 5.3335C12.965 5.3335 12.6665 5.63196 12.6665 6.00015V7.3335H11.3332C10.965 7.3335 10.6665 7.63196 10.6665 8.00015C10.6665 8.36834 10.965 8.66681 11.3332 8.66681H12.6665V10.0002C12.6665 10.3683 12.965 10.6668 13.3332 10.6668C13.7013 10.6668 13.9998 10.3683 13.9998 10.0002V8.66681H15.3332C15.7013 8.66681 15.9998 8.36834 15.9998 8.00015C15.9998 7.63196 15.7013 7.3335 15.3332 7.3335Z" fill="white"/>
<path d="M6 8C8.20914 8 10 6.20914 10 4C10 1.79086 8.20914 0 6 0C3.79086 0 2 1.79086 2 4C2 6.20914 3.79086 8 6 8Z" fill="white"/>
<path d="M6 9.3335C2.68781 9.33718 0.0036875 12.0213 0 15.3335C0 15.7017 0.298469 16.0002 0.666656 16.0002H11.3333C11.7015 16.0002 12 15.7017 12 15.3335C11.9963 12.0213 9.31219 9.33715 6 9.3335Z" fill="white"/>
</g>
<defs>
<clipPath id="clip0_5640_7646">
<rect width="16" height="16" fill="white"/>
</clipPath>
</defs>
</svg>
