<svg width="24" height="25" viewBox="0 0 24 25" fill="none" xmlns="http://www.w3.org/2000/svg">
<path d="M19 4.5H15V3.5C15 2.70435 14.6839 1.94129 14.1213 1.37868C13.5587 0.81607 12.7956 0.5 12 0.5C11.2044 0.5 10.4413 0.81607 9.87868 1.37868C9.31607 1.94129 9 2.70435 9 3.5V4.5H5C3.67441 4.50159 2.40356 5.02888 1.46622 5.96622C0.528882 6.90356 0.00158786 8.17441 0 9.5L0 19.5C0.00158786 20.8256 0.528882 22.0964 1.46622 23.0338C2.40356 23.9711 3.67441 24.4984 5 24.5H19C20.3256 24.4984 21.5964 23.9711 22.5338 23.0338C23.4711 22.0964 23.9984 20.8256 24 19.5V9.5C23.9984 8.17441 23.4711 6.90356 22.5338 5.96622C21.5964 5.02888 20.3256 4.50159 19 4.5ZM10 18.5C10 18.7652 9.89464 19.0196 9.70711 19.2071C9.51957 19.3946 9.26522 19.5 9 19.5H4C3.73478 19.5 3.48043 19.3946 3.29289 19.2071C3.10536 19.0196 3 18.7652 3 18.5V10.5C3 10.2348 3.10536 9.98043 3.29289 9.79289C3.48043 9.60536 3.73478 9.5 4 9.5H9C9.26522 9.5 9.51957 9.60536 9.70711 9.79289C9.89464 9.98043 10 10.2348 10 10.5V18.5ZM12 6.5C11.7348 6.5 11.4804 6.39464 11.2929 6.20711C11.1054 6.01957 11 5.76522 11 5.5V3.5C11 3.23478 11.1054 2.98043 11.2929 2.79289C11.4804 2.60536 11.7348 2.5 12 2.5C12.2652 2.5 12.5196 2.60536 12.7071 2.79289C12.8946 2.98043 13 3.23478 13 3.5V5.5C13 5.76522 12.8946 6.01957 12.7071 6.20711C12.5196 6.39464 12.2652 6.5 12 6.5ZM18 19.5H14C13.7348 19.5 13.4804 19.3946 13.2929 19.2071C13.1054 19.0196 13 18.7652 13 18.5C13 18.2348 13.1054 17.9804 13.2929 17.7929C13.4804 17.6054 13.7348 17.5 14 17.5H18C18.2652 17.5 18.5196 17.6054 18.7071 17.7929C18.8946 17.9804 19 18.2348 19 18.5C19 18.7652 18.8946 19.0196 18.7071 19.2071C18.5196 19.3946 18.2652 19.5 18 19.5ZM20 15.5H14C13.7348 15.5 13.4804 15.3946 13.2929 15.2071C13.1054 15.0196 13 14.7652 13 14.5C13 14.2348 13.1054 13.9804 13.2929 13.7929C13.4804 13.6054 13.7348 13.5 14 13.5H20C20.2652 13.5 20.5196 13.6054 20.7071 13.7929C20.8946 13.9804 21 14.2348 21 14.5C21 14.7652 20.8946 15.0196 20.7071 15.2071C20.5196 15.3946 20.2652 15.5 20 15.5ZM20 11.5H14C13.7348 11.5 13.4804 11.3946 13.2929 11.2071C13.1054 11.0196 13 10.7652 13 10.5C13 10.2348 13.1054 9.98043 13.2929 9.79289C13.4804 9.60536 13.7348 9.5 14 9.5H20C20.2652 9.5 20.5196 9.60536 20.7071 9.79289C20.8946 9.98043 21 10.2348 21 10.5C21 10.7652 20.8946 11.0196 20.7071 11.2071C20.5196 11.3946 20.2652 11.5 20 11.5ZM5 11.5H8V17.5H5V11.5Z" fill="#4B84C1"/>
</svg>
