<svg width="16" height="16" viewBox="0 0 16 16" fill="none" xmlns="http://www.w3.org/2000/svg">
<g clip-path="url(#clip0_5764_4730)">
<g clip-path="url(#clip1_5764_4730)">
<path d="M8.00008 2.66667C8.73646 2.66667 9.33341 2.06971 9.33341 1.33333C9.33341 0.596954 8.73646 0 8.00008 0C7.2637 0 6.66675 0.596954 6.66675 1.33333C6.66675 2.06971 7.2637 2.66667 8.00008 2.66667Z" fill="#3E4855"/>
<path d="M8.00008 9.33341C8.73646 9.33341 9.33341 8.73646 9.33341 8.00008C9.33341 7.2637 8.73646 6.66675 8.00008 6.66675C7.2637 6.66675 6.66675 7.2637 6.66675 8.00008C6.66675 8.73646 7.2637 9.33341 8.00008 9.33341Z" fill="#3E4855"/>
<path d="M8.00008 15.9999C8.73646 15.9999 9.33341 15.403 9.33341 14.6666C9.33341 13.9302 8.73646 13.3333 8.00008 13.3333C7.2637 13.3333 6.66675 13.9302 6.66675 14.6666C6.66675 15.403 7.2637 15.9999 8.00008 15.9999Z" fill="#3E4855"/>
</g>
</g>
<defs>
<clipPath id="clip0_5764_4730">
<rect width="16" height="16" fill="white"/>
</clipPath>
<clipPath id="clip1_5764_4730">
<rect width="16" height="16" fill="white"/>
</clipPath>
</defs>
</svg>
