<svg width="16" height="16" viewBox="0 0 16 16" fill="none" xmlns="http://www.w3.org/2000/svg">
<path d="M12.542 6.66639C12.748 6.66639 12.9427 6.57106 13.0687 6.4084C13.1947 6.24574 13.2387 6.03375 13.188 5.83442C12.9807 5.02312 12.558 4.28182 11.966 3.68985L9.64267 1.36661C8.76133 0.485313 7.58933 0 6.34267 0H3.33267C1.49533 0 0 1.49527 0 3.33319V12.6661C0 14.5041 1.49533 15.9993 3.33333 15.9993H5.33333C5.70133 15.9993 6 15.7007 6 15.3327C6 14.9647 5.70133 14.6661 5.33333 14.6661H3.33333C2.23067 14.6661 1.33333 13.7688 1.33333 12.6661V3.33319C1.33333 2.23057 2.23067 1.33328 3.33333 1.33328H6.34333C6.452 1.33328 6.56 1.33861 6.66667 1.34861V4.66647C6.66667 5.76909 7.564 6.66639 8.66667 6.66639H12.542ZM8 4.66647V1.77259C8.25267 1.91792 8.488 2.09791 8.7 2.3099L11.0233 4.63314C11.2327 4.84246 11.412 5.07846 11.5587 5.33311H8.66667C8.29933 5.33311 8 5.03379 8 4.66647ZM15.4147 7.919C14.6587 7.16303 13.3413 7.16303 12.586 7.919L8.11467 12.3902C7.61133 12.8935 7.33333 13.5634 7.33333 14.2761V15.3334C7.33333 15.7013 7.632 16 8 16H9.05733C9.77 16 10.4393 15.722 10.9427 15.2187L15.414 10.7476C15.792 10.3696 16 9.86759 16 9.33294C16 8.7983 15.792 8.29632 15.4147 7.919ZM14.4713 9.80426L9.99933 14.2754C9.748 14.5274 9.41333 14.6661 9.05667 14.6661H8.666V14.2754C8.666 13.9194 8.80467 13.5848 9.05667 13.3328L13.5287 8.86163C13.78 8.60964 14.2193 8.60964 14.4713 8.86163C14.5973 8.98696 14.6667 9.15429 14.6667 9.33294C14.6667 9.5116 14.5973 9.67826 14.4713 9.80426Z" fill="white"/>
</svg>
