<svg width="32" height="33" viewBox="0 0 32 33" fill="none" xmlns="http://www.w3.org/2000/svg">
<path d="M7.9998 7.70005C7.9998 7.06353 8.25266 6.45308 8.70275 6.00299C9.15284 5.55291 9.76329 5.30005 10.3998 5.30005H21.5998C22.2363 5.30005 22.8468 5.55291 23.2969 6.00299C23.747 6.45308 23.9998 7.06353 23.9998 7.70005V11.7H22.3998V7.70005C22.3998 7.48788 22.3155 7.28439 22.1655 7.13436C22.0155 6.98433 21.812 6.90005 21.5998 6.90005H10.3998C10.1876 6.90005 9.98415 6.98433 9.83412 7.13436C9.68409 7.28439 9.5998 7.48788 9.5998 7.70005V13.3H18.3998C18.0439 13.7733 17.7979 14.3198 17.6798 14.9H7.9998C7.57546 14.9 7.16849 15.0686 6.86843 15.3687C6.56838 15.6687 6.3998 16.0757 6.3998 16.5V25.3001C6.3998 25.5122 6.48409 25.7157 6.63412 25.8657C6.78415 26.0158 6.98763 26.1 7.1998 26.1H17.6798C17.7998 26.6921 18.0494 27.2361 18.3998 27.7001H7.1998C6.56329 27.7001 5.95284 27.4472 5.50275 26.9971C5.05266 26.547 4.7998 25.9366 4.7998 25.3001V16.5C4.7998 15.6514 5.13695 14.8374 5.73706 14.2373C6.33718 13.6372 7.15111 13.3 7.9998 13.3V7.70005ZM19.1998 15.7C19.1998 15.0635 19.4527 14.4531 19.9027 14.003C20.3528 13.5529 20.9633 13.3 21.5998 13.3H24.7998C25.4363 13.3 26.0468 13.5529 26.4969 14.003C26.9469 14.4531 27.1998 15.0635 27.1998 15.7V25.3001C27.1998 25.9366 26.9469 26.547 26.4969 26.9971C26.0468 27.4472 25.4363 27.7001 24.7998 27.7001H21.5998C20.9633 27.7001 20.3528 27.4472 19.9027 26.9971C19.4527 26.547 19.1998 25.9366 19.1998 25.3001V15.7ZM21.5998 14.9C21.3876 14.9 21.1841 14.9843 21.0341 15.1344C20.8841 15.2844 20.7998 15.4879 20.7998 15.7V25.3001C20.7998 25.5122 20.8841 25.7157 21.0341 25.8657C21.1841 26.0158 21.3876 26.1 21.5998 26.1H24.7998C25.012 26.1 25.2155 26.0158 25.3655 25.8657C25.5155 25.7157 25.5998 25.5122 25.5998 25.3001V15.7C25.5998 15.4879 25.5155 15.2844 25.3655 15.1344C25.2155 14.9843 25.012 14.9 24.7998 14.9H21.5998ZM8.9998 16.5C9.26502 16.5 9.51938 16.6054 9.70691 16.7929C9.89445 16.9805 9.9998 17.2348 9.9998 17.5C9.9998 17.7653 9.89445 18.0196 9.70691 18.2072C9.51938 18.3947 9.26502 18.5 8.9998 18.5C8.73459 18.5 8.48023 18.3947 8.2927 18.2072C8.10516 18.0196 7.9998 17.7653 7.9998 17.5C7.9998 17.2348 8.10516 16.9805 8.2927 16.7929C8.48023 16.6054 8.73459 16.5 8.9998 16.5ZM8.9998 20.1C9.26502 20.1 9.51938 20.2054 9.70691 20.3929C9.89445 20.5805 9.9998 20.8348 9.9998 21.1C9.9998 21.3653 9.89445 21.6196 9.70691 21.8072C9.51938 21.9947 9.26502 22.1 8.9998 22.1C8.73459 22.1 8.48023 21.9947 8.2927 21.8072C8.10516 21.6196 7.9998 21.3653 7.9998 21.1C7.9998 20.8348 8.10516 20.5805 8.2927 20.3929C8.48023 20.2054 8.73459 20.1 8.9998 20.1ZM13.5998 21.3001C13.5998 21.0348 13.4944 20.7805 13.3069 20.5929C13.1194 20.4054 12.865 20.3 12.5998 20.3C12.3346 20.3 12.0802 20.4054 11.8927 20.5929C11.7052 20.7805 11.5998 21.0348 11.5998 21.3001C11.5998 21.5653 11.7052 21.8196 11.8927 22.0072C12.0802 22.1947 12.3346 22.3001 12.5998 22.3001C12.865 22.3001 13.1194 22.1947 13.3069 22.0072C13.4944 21.8196 13.5998 21.5653 13.5998 21.3001ZM12.5998 16.5C12.865 16.5 13.1194 16.6054 13.3069 16.7929C13.4944 16.9805 13.5998 17.2348 13.5998 17.5C13.5998 17.7653 13.4944 18.0196 13.3069 18.2072C13.1194 18.3947 12.865 18.5 12.5998 18.5C12.3346 18.5 12.0802 18.3947 11.8927 18.2072C11.7052 18.0196 11.5998 17.7653 11.5998 17.5C11.5998 17.2348 11.7052 16.9805 11.8927 16.7929C12.0802 16.6054 12.3346 16.5 12.5998 16.5Z" fill="#3E4855"/>
</svg>
