<svg width="16" height="16" viewBox="0 0 16 16" fill="none" xmlns="http://www.w3.org/2000/svg">
<g clip-path="url(#clip0_5934_2880)">
<path d="M0.666667 3.16672H2.49067C2.63376 3.69321 2.94612 4.15798 3.37955 4.48934C3.81299 4.8207 4.34341 5.00022 4.889 5.00022C5.43459 5.00022 5.96501 4.8207 6.39845 4.48934C6.83188 4.15798 7.14424 3.69321 7.28733 3.16672H15.3333C15.5101 3.16672 15.6797 3.09648 15.8047 2.97146C15.9298 2.84643 16 2.67686 16 2.50005C16 2.32324 15.9298 2.15367 15.8047 2.02865C15.6797 1.90362 15.5101 1.83338 15.3333 1.83338H7.28733C7.14424 1.3069 6.83188 0.842121 6.39845 0.510763C5.96501 0.179405 5.43459 -0.00012207 4.889 -0.00012207C4.34341 -0.00012207 3.81299 0.179405 3.37955 0.510763C2.94612 0.842121 2.63376 1.3069 2.49067 1.83338H0.666667C0.489856 1.83338 0.320286 1.90362 0.195262 2.02865C0.0702379 2.15367 0 2.32324 0 2.50005C0 2.67686 0.0702379 2.84643 0.195262 2.97146C0.320286 3.09648 0.489856 3.16672 0.666667 3.16672ZM4.88867 1.33338C5.11941 1.33338 5.34497 1.40181 5.53683 1.53C5.72869 1.6582 5.87822 1.84041 5.96653 2.05359C6.05483 2.26677 6.07793 2.50134 6.03292 2.72766C5.9879 2.95397 5.87679 3.16185 5.71362 3.32501C5.55046 3.48817 5.34258 3.59928 5.11627 3.6443C4.88996 3.68932 4.65538 3.66621 4.4422 3.57791C4.22902 3.48961 4.04681 3.34007 3.91862 3.14822C3.79042 2.95636 3.722 2.7308 3.722 2.50005C3.72235 2.19074 3.84538 1.8942 4.0641 1.67548C4.28281 1.45677 4.57936 1.33374 4.88867 1.33338Z" fill="black"/>
<path d="M15.3333 7.3333H13.5093C13.3665 6.80669 13.0542 6.34175 12.6208 6.01025C12.1874 5.67876 11.657 5.49915 11.1113 5.49915C10.5657 5.49915 10.0352 5.67876 9.60182 6.01025C9.16842 6.34175 8.85619 6.80669 8.71333 7.3333H0.666667C0.489856 7.3333 0.320286 7.40354 0.195262 7.52856C0.0702379 7.65359 0 7.82316 0 7.99997C0 8.17678 0.0702379 8.34635 0.195262 8.47137C0.320286 8.5964 0.489856 8.66664 0.666667 8.66664H8.71333C8.85619 9.19325 9.16842 9.65819 9.60182 9.98968C10.0352 10.3212 10.5657 10.5008 11.1113 10.5008C11.657 10.5008 12.1874 10.3212 12.6208 9.98968C13.0542 9.65819 13.3665 9.19325 13.5093 8.66664H15.3333C15.5101 8.66664 15.6797 8.5964 15.8047 8.47137C15.9298 8.34635 16 8.17678 16 7.99997C16 7.82316 15.9298 7.65359 15.8047 7.52856C15.6797 7.40354 15.5101 7.3333 15.3333 7.3333ZM11.1113 9.16664C10.8806 9.16664 10.655 9.09821 10.4632 8.97002C10.2713 8.84182 10.1218 8.65961 10.0335 8.44643C9.94517 8.23325 9.92207 7.99867 9.96708 7.77236C10.0121 7.54605 10.1232 7.33817 10.2864 7.17501C10.4495 7.01185 10.6574 6.90073 10.8837 6.85572C11.11 6.8107 11.3446 6.83381 11.5578 6.92211C11.771 7.01041 11.9532 7.15995 12.0814 7.3518C12.2096 7.54366 12.278 7.76922 12.278 7.99997C12.2776 8.30928 12.1546 8.60582 11.9359 8.82454C11.7172 9.04325 11.4206 9.16628 11.1113 9.16664Z" fill="black"/>
<path d="M15.3333 12.8334H7.28733C7.14424 12.3069 6.83188 11.8421 6.39845 11.5108C5.96501 11.1794 5.43459 10.9999 4.889 10.9999C4.34341 10.9999 3.81299 11.1794 3.37955 11.5108C2.94612 11.8421 2.63376 12.3069 2.49067 12.8334H0.666667C0.489856 12.8334 0.320286 12.9036 0.195262 13.0286C0.0702379 13.1537 0 13.3232 0 13.5001C0 13.6769 0.0702379 13.8464 0.195262 13.9715C0.320286 14.0965 0.489856 14.1667 0.666667 14.1667H2.49067C2.63376 14.6932 2.94612 15.158 3.37955 15.4893C3.81299 15.8207 4.34341 16.0002 4.889 16.0002C5.43459 16.0002 5.96501 15.8207 6.39845 15.4893C6.83188 15.158 7.14424 14.6932 7.28733 14.1667H15.3333C15.5101 14.1667 15.6797 14.0965 15.8047 13.9715C15.9298 13.8464 16 13.6769 16 13.5001C16 13.3232 15.9298 13.1537 15.8047 13.0286C15.6797 12.9036 15.5101 12.8334 15.3333 12.8334ZM4.88867 14.6667C4.65792 14.6667 4.43236 14.5983 4.2405 14.4701C4.04864 14.3419 3.89911 14.1597 3.81081 13.9465C3.72251 13.7333 3.6994 13.4988 3.74442 13.2724C3.78943 13.0461 3.90055 12.8383 4.06371 12.6751C4.22687 12.5119 4.43475 12.4008 4.66106 12.3558C4.88737 12.3108 5.12195 12.3339 5.33513 12.4222C5.54831 12.5105 5.73052 12.66 5.85871 12.8519C5.98691 13.0437 6.05533 13.2693 6.05533 13.5001C6.0548 13.8093 5.93172 14.1057 5.71304 14.3244C5.49436 14.5431 5.19792 14.6662 4.88867 14.6667Z" fill="black"/>
</g>
<defs>
<clipPath id="clip0_5934_2880">
<rect width="16" height="16" fill="white"/>
</clipPath>
</defs>
</svg>
