<svg width="12" height="14" viewBox="0 0 12 14" fill="none" xmlns="http://www.w3.org/2000/svg">
<path d="M10.6376 3.22935L8.60408 1.19585C8.22583 0.81556 7.77593 0.514061 7.28039 0.308798C6.78485 0.103534 6.25353 -0.00141783 5.71716 1.44644e-05H3.08341C2.31015 0.000940715 1.56882 0.308529 1.02204 0.855309C0.475263 1.40209 0.167674 2.14342 0.166748 2.91668V11.0833C0.167674 11.8566 0.475263 12.5979 1.02204 13.1447C1.56882 13.6915 2.31015 13.9991 3.08341 14H8.91675C9.69001 13.9991 10.4313 13.6915 10.9781 13.1447C11.5249 12.5979 11.8325 11.8566 11.8334 11.0833V6.11626C11.8348 5.5799 11.7299 5.04858 11.5246 4.55304C11.3194 4.0575 11.0179 3.60759 10.6376 3.22935ZM9.81275 4.05418C9.99069 4.23759 10.1439 4.4435 10.2683 4.66668H7.75008C7.59537 4.66668 7.447 4.60522 7.3376 4.49583C7.22821 4.38643 7.16675 4.23806 7.16675 4.08335V1.5651C7.38993 1.68957 7.59584 1.84274 7.77925 2.02068L9.81275 4.05418ZM10.6667 11.0833C10.6667 11.5475 10.4824 11.9926 10.1542 12.3208C9.826 12.649 9.38088 12.8333 8.91675 12.8333H3.08341C2.61929 12.8333 2.17417 12.649 1.84598 12.3208C1.51779 11.9926 1.33341 11.5475 1.33341 11.0833V2.91668C1.33341 2.45255 1.51779 2.00743 1.84598 1.67924C2.17417 1.35106 2.61929 1.16668 3.08341 1.16668H5.71716C5.81341 1.16668 5.90558 1.18535 6.00008 1.1941V4.08335C6.00008 4.54748 6.18446 4.9926 6.51264 5.32078C6.84083 5.64897 7.28595 5.83335 7.75008 5.83335H10.6393C10.6481 5.92785 10.6667 6.02001 10.6667 6.11626V11.0833ZM8.75575 7.76476C8.86226 7.87681 8.91994 8.02656 8.91611 8.18111C8.91229 8.33566 8.84726 8.48238 8.73533 8.58901L6.64175 10.5805C6.31266 10.9044 5.86888 11.0851 5.40712 11.0833C4.94537 11.0814 4.50306 10.8971 4.17658 10.5706L3.27825 9.7691C3.16268 9.66606 3.09278 9.52134 3.08392 9.36676C3.07953 9.29022 3.09026 9.21357 3.11549 9.14117C3.14073 9.06878 3.17998 9.00207 3.231 8.94485C3.28202 8.88762 3.34381 8.84101 3.41284 8.80767C3.48187 8.77432 3.5568 8.7549 3.63334 8.75051C3.78791 8.74165 3.93968 8.79456 4.05525 8.8976L4.97983 9.72243C5.03276 9.78187 5.09729 9.82985 5.16946 9.86342C5.24163 9.89698 5.3199 9.91543 5.39946 9.91761C5.47902 9.9198 5.55818 9.90568 5.63208 9.87613C5.70598 9.84657 5.77305 9.80221 5.82916 9.74576L7.92916 7.74435C7.98469 7.69125 8.05017 7.64965 8.12182 7.62193C8.19347 7.59421 8.26989 7.58092 8.3467 7.58281C8.4235 7.58471 8.49918 7.60176 8.56937 7.63298C8.63957 7.66421 8.70291 7.70899 8.75575 7.76476Z" fill="white"/>
</svg>
