<svg width="12" height="14" viewBox="0 0 12 14" fill="none" xmlns="http://www.w3.org/2000/svg">
<path d="M7.87083 8.28743L6.82491 9.33335L7.87083 10.3793C7.92655 10.4331 7.97099 10.4974 8.00156 10.5686C8.03213 10.6398 8.04822 10.7163 8.04889 10.7938C8.04957 10.8712 8.03481 10.948 8.00548 11.0197C7.97615 11.0914 7.93283 11.1566 7.87806 11.2113C7.82329 11.2661 7.75816 11.3094 7.68647 11.3387C7.61478 11.3681 7.53797 11.3828 7.46051 11.3822C7.38306 11.3815 7.30651 11.3654 7.23535 11.3348C7.16418 11.3042 7.09981 11.2598 7.046 11.2041L6.00008 10.1582L4.95416 11.2041C4.84415 11.3104 4.6968 11.3692 4.54385 11.3678C4.3909 11.3665 4.24459 11.3051 4.13644 11.197C4.02828 11.0888 3.96693 10.9425 3.9656 10.7896C3.96428 10.6366 4.02307 10.4893 4.12933 10.3793L5.17525 9.33335L4.12933 8.28743C4.02307 8.17741 3.96428 8.03006 3.9656 7.87711C3.96693 7.72416 4.02828 7.57786 4.13644 7.4697C4.24459 7.36155 4.3909 7.3002 4.54385 7.29887C4.6968 7.29754 4.84415 7.35634 4.95416 7.4626L6.00008 8.50851L7.046 7.4626C7.15602 7.35634 7.30337 7.29754 7.45632 7.29887C7.60926 7.3002 7.75557 7.36155 7.86373 7.4697C7.97188 7.57786 8.03323 7.72416 8.03456 7.87711C8.03589 8.03006 7.97709 8.17741 7.87083 8.28743ZM11.8334 6.11626V11.0833C11.8325 11.8566 11.5249 12.5979 10.9781 13.1447C10.4313 13.6915 9.69001 13.9991 8.91675 14H3.08341C2.31015 13.9991 1.56882 13.6915 1.02204 13.1447C0.475263 12.5979 0.167674 11.8566 0.166748 11.0833V2.91668C0.167674 2.14342 0.475263 1.40209 1.02204 0.855308C1.56882 0.308528 2.31015 0.000939695 3.08341 1.34451e-05H5.71716C6.25361 -0.00136726 6.785 0.103606 7.28063 0.308865C7.77625 0.514123 8.22627 0.815594 8.60466 1.19585L10.637 3.22935C11.0175 3.60749 11.3191 4.05736 11.5245 4.55292C11.7299 5.04847 11.8349 5.57984 11.8334 6.11626ZM7.77983 2.02068C7.59624 1.84286 7.39013 1.68989 7.16675 1.56568V4.08335C7.16675 4.23806 7.22821 4.38643 7.3376 4.49583C7.447 4.60522 7.59537 4.66668 7.75008 4.66668H10.2677C10.1435 4.44337 9.99029 4.23743 9.81216 4.05418L7.77983 2.02068ZM10.6667 6.11626C10.6667 6.02001 10.6481 5.92785 10.6393 5.83335H7.75008C7.28595 5.83335 6.84083 5.64897 6.51264 5.32078C6.18446 4.99259 6.00008 4.54748 6.00008 4.08335V1.1941C5.90558 1.18535 5.81283 1.16668 5.71716 1.16668H3.08341C2.61929 1.16668 2.17417 1.35105 1.84598 1.67924C1.51779 2.00743 1.33341 2.45255 1.33341 2.91668V11.0833C1.33341 11.5475 1.51779 11.9926 1.84598 12.3208C2.17417 12.649 2.61929 12.8333 3.08341 12.8333H8.91675C9.38088 12.8333 9.826 12.649 10.1542 12.3208C10.4824 11.9926 10.6667 11.5475 10.6667 11.0833V6.11626Z" fill="white"/>
</svg>
