<svg width="14" height="16" viewBox="0 0 14 16" fill="none" xmlns="http://www.w3.org/2000/svg">
<path d="M12.7901 13.9333C12.5168 13.6867 12.0901 13.7133 11.8501 13.9933C11.4701 14.4267 10.9234 14.6733 10.3501 14.6733H3.68343C2.58343 14.6733 1.68343 13.7733 1.68343 12.6733V3.33333C1.68343 2.23333 2.58343 1.33333 3.68343 1.33333H6.6901C6.79676 1.33333 6.9101 1.33333 7.01676 1.34667V4.66667C7.01676 5.76667 7.91676 6.66667 9.01676 6.66667H12.8901C13.0968 6.66667 13.2901 6.57333 13.4168 6.40667C13.5434 6.24 13.5834 6.03333 13.5368 5.83333C13.3301 5.02 12.9101 4.28 12.3168 3.68667L9.99676 1.36667C9.11676 0.486667 7.94343 0 6.69676 0H3.68343C1.84343 0 0.350098 1.49333 0.350098 3.33333V12.6667C0.350098 14.5067 1.84343 16 3.68343 16H10.3501C11.3034 16 12.2168 15.5867 12.8501 14.8733C13.0968 14.6 13.0701 14.1733 12.7901 13.9333ZM8.3501 1.77333C8.60343 1.92 8.83676 2.1 9.0501 2.31333L11.3701 4.63333C11.5768 4.84 11.7568 5.08 11.9034 5.33333H9.0101C8.64343 5.33333 8.34343 5.03333 8.34343 4.66667V1.77333H8.3501Z" fill="white"/>
<path d="M13.1035 11.7599C13.8701 10.9866 13.8701 9.7333 13.1034 8.96667L12.0301 7.89333C11.7701 7.63333 11.3501 7.63333 11.0901 7.89333C10.8301 8.15333 10.8301 8.57333 11.0901 8.83333L11.9501 9.69333H7.01676C6.6501 9.69333 6.3501 9.99333 6.3501 10.36C6.3501 10.7267 6.6501 11.0267 7.01676 11.0267H11.9501L11.0901 11.8867C10.8301 12.1467 10.8301 12.5667 11.0901 12.8267C11.2234 12.9533 11.3901 13.02 11.5634 13.02C11.7368 13.02 11.9034 12.96 12.0368 12.8267L13.1035 11.7599Z" fill="white"/>
</svg>
