<svg width="16" height="15" viewBox="0 0 16 15" fill="none" xmlns="http://www.w3.org/2000/svg">
<path d="M15.5608 5.82033L13.2268 1.82033C12.6314 0.800326 11.5288 0.166992 10.3481 0.166992H5.63411C4.45344 0.166992 3.35011 0.800992 2.75477 1.82033L0.420773 5.82033C-0.183227 6.85633 -0.183227 8.14366 0.420773 9.17966L2.75477 13.1797C3.35011 14.1997 4.45277 14.833 5.63344 14.833H10.3474C11.5281 14.833 12.6314 14.199 13.2268 13.1797L15.5601 9.17966C16.1641 8.14366 16.1648 6.85633 15.5608 5.82033ZM10.4714 9.02833C10.7321 9.28899 10.7321 9.71033 10.4714 9.97099C10.3414 10.101 10.1708 10.1663 10.0001 10.1663C9.82944 10.1663 9.65877 10.101 9.52877 9.97099L8.00011 8.44233L6.47144 9.97099C6.34144 10.101 6.17077 10.1663 6.00011 10.1663C5.82944 10.1663 5.65877 10.101 5.52877 9.97099C5.26811 9.71033 5.26811 9.28899 5.52877 9.02833L7.05744 7.49966L5.52877 5.97099C5.26811 5.71033 5.26811 5.28899 5.52877 5.02833C5.78944 4.76766 6.21077 4.76766 6.47144 5.02833L8.00011 6.55699L9.52877 5.02833C9.78944 4.76766 10.2108 4.76766 10.4714 5.02833C10.7321 5.28899 10.7321 5.71033 10.4714 5.97099L8.94277 7.49966L10.4714 9.02833Z" fill="white"/>
</svg>
