<svg
    width="17"
    height="25"
    viewBox="0 0 17 25"
    fill="currentColor"
    xmlns="http://www.w3.org/2000/svg"
>
    <path
        fill-rule="evenodd"
        clip-rule="evenodd"
        d="M0.6875 3.125C0.6875 2.2962 1.01674 1.50134 1.60279 0.915291C2.18884 0.32924 2.9837 0 3.8125 0L13.1875 0C14.0163 0 14.8112 0.32924 15.3972 0.915291C15.9833 1.50134 16.3125 2.2962 16.3125 3.125V21.875C16.3125 22.7038 15.9833 23.4987 15.3972 24.0847C14.8112 24.6708 14.0163 25 13.1875 25H3.8125C2.9837 25 2.18884 24.6708 1.60279 24.0847C1.01674 23.4987 0.6875 22.7038 0.6875 21.875V3.125ZM10.0625 20.3125C10.0625 20.7269 9.89788 21.1243 9.60485 21.4174C9.31183 21.7104 8.9144 21.875 8.5 21.875C8.0856 21.875 7.68817 21.7104 7.39515 21.4174C7.10212 21.1243 6.9375 20.7269 6.9375 20.3125C6.9375 19.8981 7.10212 19.5007 7.39515 19.2076C7.68817 18.9146 8.0856 18.75 8.5 18.75C8.9144 18.75 9.31183 18.9146 9.60485 19.2076C9.89788 19.5007 10.0625 19.8981 10.0625 20.3125V20.3125Z"
        fill="currentColor"
    />
</svg>