<svg width="16" height="17" viewBox="0 0 16 17" fill="none" xmlns="http://www.w3.org/2000/svg">
<path d="M12.6668 8.49992C12.6668 8.86811 12.3684 9.16659 12.0002 9.16659H4.00016C3.63197 9.16659 3.3335 8.86811 3.3335 8.49992C3.3335 8.13173 3.63197 7.83325 4.00016 7.83325H12.0002C12.3684 7.83325 12.6668 8.13173 12.6668 8.49992Z" fill="white"/>
<path d="M8.00033 13.1668C7.63214 13.1668 7.33366 12.8684 7.33366 12.5002L7.33366 4.50016C7.33366 4.13197 7.63214 3.8335 8.00033 3.8335C8.36852 3.8335 8.66699 4.13197 8.66699 4.50016L8.66699 12.5002C8.66699 12.8684 8.36851 13.1668 8.00033 13.1668Z" fill="white"/>
</svg>
