<svg width="16" height="16" viewBox="0 0 16 16" fill="none" xmlns="http://www.w3.org/2000/svg">
<path d="M16 6C16.0015 5.63299 15.902 5.27263 15.7124 4.9584C15.5228 4.64417 15.2503 4.38817 14.9249 4.21844C14.5995 4.04871 14.2337 3.9718 13.8675 3.99612C13.5013 4.02044 13.1488 4.14506 12.8487 4.35634C12.5486 4.56761 12.3124 4.85739 12.166 5.19394C12.0196 5.53049 11.9687 5.90084 12.0187 6.26443C12.0687 6.62802 12.2179 6.97082 12.4497 7.25531C12.6816 7.5398 12.9873 7.75499 13.3333 7.87733V10.6667C13.3333 11.7275 12.9119 12.7449 12.1618 13.4951C11.4116 14.2452 10.3942 14.6667 9.33333 14.6667C8.27247 14.6667 7.25505 14.2452 6.50491 13.4951C5.75476 12.7449 5.33333 11.7275 5.33333 10.6667V10.6133C6.44272 10.4524 7.45721 9.89777 8.19157 9.05081C8.92594 8.20384 9.33119 7.121 9.33333 6V3.33333C9.33228 2.4496 8.98075 1.60237 8.35585 0.97748C7.73096 0.352588 6.88373 0.00105857 6 0C5.82319 0 5.65362 0.0702379 5.5286 0.195262C5.40357 0.320286 5.33333 0.489856 5.33333 0.666667C5.33333 0.843478 5.40357 1.01305 5.5286 1.13807C5.65362 1.2631 5.82319 1.33333 6 1.33333C6.53043 1.33333 7.03914 1.54405 7.41421 1.91912C7.78929 2.29419 8 2.8029 8 3.33333V6C8 6.88406 7.64881 7.7319 7.02369 8.35702C6.39857 8.98214 5.55072 9.33333 4.66667 9.33333C3.78261 9.33333 2.93477 8.98214 2.30964 8.35702C1.68452 7.7319 1.33333 6.88406 1.33333 6V3.33333C1.33333 2.8029 1.54405 2.29419 1.91912 1.91912C2.29419 1.54405 2.8029 1.33333 3.33333 1.33333C3.51014 1.33333 3.67971 1.2631 3.80474 1.13807C3.92976 1.01305 4 0.843478 4 0.666667C4 0.489856 3.92976 0.320286 3.80474 0.195262C3.67971 0.0702379 3.51014 0 3.33333 0C2.4496 0.00105857 1.60237 0.352588 0.97748 0.97748C0.352588 1.60237 0.00105857 2.4496 0 3.33333L0 6C0.00214397 7.121 0.407394 8.20384 1.14176 9.05081C1.87612 9.89777 2.89061 10.4524 4 10.6133V10.6667C4 12.0812 4.5619 13.4377 5.5621 14.4379C6.56229 15.4381 7.91885 16 9.33333 16C10.7478 16 12.1044 15.4381 13.1046 14.4379C14.1048 13.4377 14.6667 12.0812 14.6667 10.6667V7.87733C15.0553 7.73994 15.3919 7.48585 15.6306 7.1498C15.8693 6.81375 15.9983 6.41217 16 6Z" fill="#3386C7"/>
</svg>
